<?xml version="1.0" standalone="no"?>
<!DOCTYPE svg PUBLIC "-//W3C//DTD SVG 20010904//EN"
 "http://www.w3.org/TR/2001/REC-SVG-20010904/DTD/svg10.dtd">
<svg version="1.0" xmlns="http://www.w3.org/2000/svg"
 width="512.000000pt" height="512.000000pt" viewBox="0 0 512.000000 512.000000"
 preserveAspectRatio="xMidYMid meet">
<metadata>
Created by potrace 1.14, written by Peter Selinger 2001-2017
</metadata>
<g transform="translate(0.000000,512.000000) scale(0.100000,-0.100000)"
fill="#000000" stroke="none">
<path d="M0 2560 l0 -2560 2560 0 2560 0 0 2560 0 2560 -2560 0 -2560 0 0
-2560z m2639 1901 c7 -5 10 -14 6 -20 -5 -9 -10 -9 -21 0 -26 22 -14 38 15 20z
m124 3 c3 -4 -1 -13 -9 -21 -17 -18 -29 -11 -21 12 7 16 19 20 30 9z m-213
-45 c0 -5 -4 -9 -10 -9 -5 0 -10 7 -10 16 0 8 5 12 10 9 6 -3 10 -10 10 -16z
m296 -4 c-1 -22 -2 -23 -13 -9 -12 17 -9 34 7 34 4 0 7 -11 6 -25z m-61 -30
c58 -20 79 -34 121 -80 49 -53 56 -68 71 -153 5 -29 24 -50 46 -50 9 0 56 -17
104 -38 17 -8 39 -14 49 -14 9 0 32 -11 50 -25 18 -14 37 -25 42 -25 14 0 167
-104 210 -143 69 -62 132 -127 132 -135 0 -5 11 -19 24 -31 14 -13 30 -36 36
-52 7 -16 16 -29 20 -29 4 0 11 -11 14 -25 4 -14 11 -25 16 -25 6 0 10 -8 10
-17 0 -9 6 -24 14 -32 7 -9 24 -43 37 -76 12 -33 27 -64 31 -69 4 -6 8 -26 8
-46 0 -20 7 -59 15 -86 12 -41 15 -153 16 -674 1 -344 4 -636 8 -649 4 -13 24
-38 45 -55 35 -29 45 -31 134 -36 l97 -5 3 -110 c1 -60 -1 -115 -6 -122 -5 -8
-138 -12 -510 -14 -291 -2 -505 -6 -509 -12 -3 -5 -5 -57 -4 -116 2 -87 -1
-110 -13 -121 -9 -7 -16 -19 -16 -27 0 -52 -166 -203 -224 -203 -8 0 -16 -6
-18 -12 -3 -9 -41 -14 -130 -16 -123 -4 -128 -3 -193 27 -36 17 -71 31 -76 31
-5 0 -9 5 -9 10 0 6 -8 13 -17 17 -22 7 -91 82 -99 106 -3 9 -10 17 -15 17 -5
0 -9 11 -9 24 0 13 -7 30 -16 37 -13 11 -15 31 -12 121 2 67 -1 109 -7 111 -5
3 -233 5 -504 6 -272 1 -499 5 -503 7 -4 3 -8 59 -8 125 l0 119 85 0 c87 0
129 12 164 48 39 38 40 69 41 692 0 600 6 755 28 797 7 12 12 29 12 38 0 17
23 77 41 105 5 8 16 29 24 47 8 17 19 34 25 38 5 3 10 14 10 25 0 10 7 20 15
24 8 3 15 11 15 19 0 7 27 42 61 77 33 36 65 73 70 83 5 9 14 17 20 17 6 0 35
21 66 48 30 26 60 45 67 44 6 -2 8 0 4 3 -8 9 34 45 51 45 13 0 74 41 79 53 2
4 14 7 27 7 13 0 27 5 30 10 3 6 15 10 25 10 10 0 25 7 34 15 8 8 25 15 38 15
30 0 118 34 127 49 4 7 8 30 9 51 3 69 62 153 133 187 41 20 113 40 144 42 17
0 62 -10 100 -24z m-351 -59 c-3 -8 -13 -17 -22 -21 -13 -5 -13 -2 3 15 21 24
26 25 19 6z m556 0 c0 -2 -7 -6 -15 -10 -8 -3 -15 -1 -15 4 0 6 7 10 15 10 8
0 15 -2 15 -4z m70 -16 c0 -5 -7 -10 -15 -10 -8 0 -15 5 -15 10 0 6 7 10 15
10 8 0 15 -4 15 -10z m-50 -35 c-7 -8 -17 -12 -22 -9 -6 4 -5 10 3 15 22 14
33 10 19 -6z m-640 -5 c0 -5 -2 -10 -4 -10 -3 0 -8 5 -11 10 -3 6 -1 10 4 10
6 0 11 -4 11 -10z m0 -90 c-1 -24 -1 -24 -15 -6 -14 19 -15 19 -15 -6 0 -15
-4 -29 -9 -33 -13 -7 -26 15 -14 24 5 3 8 16 7 27 -1 17 4 21 22 20 19 -1 24
-7 24 -26z m680 26 c0 -2 -3 -11 -6 -20 -5 -12 -9 -13 -19 -3 -7 7 -11 15 -8
20 4 7 33 10 33 3z m14 -61 c-7 -18 -20 -19 -30 -3 -4 7 -3 8 4 4 7 -4 12 -2
12 3 0 6 4 11 10 11 5 0 7 -7 4 -15z m-917 -27 c-3 -8 -6 -5 -6 6 -1 11 2 17
5 13 3 -3 4 -12 1 -19z m89 0 c1 -10 -3 -15 -10 -12 -15 6 -17 36 -3 31 6 -2
11 -10 13 -19z m900 7 c-11 -8 -27 -15 -35 -15 -10 0 -7 6 9 14 33 19 50 19
26 1z m-959 -41 c-9 -9 -28 6 -21 18 4 6 10 6 17 -1 6 -6 8 -13 4 -17z m1038
7 c-3 -6 -11 -8 -17 -5 -6 4 -5 9 3 15 16 10 23 4 14 -10z m-1101 -19 c2 -4 1
-14 -3 -21 -6 -9 -10 -7 -14 8 -5 20 7 29 17 13z m1156 -2 c0 -5 -4 -10 -10
-10 -5 0 -10 5 -10 10 0 6 5 10 10 10 6 0 10 -4 10 -10z m-1209 -53 c-10 -9
-11 -8 -5 6 3 10 9 15 12 12 3 -3 0 -11 -7 -18z m1389 -3 c0 -8 -5 -12 -10 -9
-6 4 -8 11 -5 16 9 14 15 11 15 -7z m-1476 -49 c-4 -8 -11 -15 -16 -15 -6 0
-5 6 2 15 7 8 14 15 16 15 2 0 1 -7 -2 -15z m1439 8 c-7 -2 -21 -2 -30 0 -10
3 -4 5 12 5 17 0 24 -2 18 -5z m-1478 -13 c3 -5 1 -10 -4 -10 -6 0 -11 5 -11
10 0 6 2 10 4 10 3 0 8 -4 11 -10z m1507 -15 c3 -13 1 -22 -3 -19 -9 5 -13 44
-5 44 2 0 6 -11 8 -25z m48 -5 c0 -5 -5 -10 -11 -10 -5 0 -7 5 -4 10 3 6 8 10
11 10 2 0 4 -4 4 -10z m-1620 -24 c0 -3 -4 -8 -10 -11 -5 -3 -10 -1 -10 4 0 6
5 11 10 11 6 0 10 -2 10 -4z m-60 -67 c0 -5 -4 -9 -10 -9 -5 0 -10 7 -10 16 0
8 5 12 10 9 6 -3 10 -10 10 -16z m-60 -79 c0 -5 -5 -10 -11 -10 -5 0 -7 5 -4
10 3 6 8 10 11 10 2 0 4 -4 4 -10z m1907 -16 c-3 -3 -12 -4 -19 -1 -8 3 -5 6
6 6 11 1 17 -2 13 -5z m-1987 -14 c0 -5 -2 -10 -4 -10 -3 0 -8 5 -11 10 -3 6
-1 10 4 10 6 0 11 -4 11 -10z m38 -13 c-9 -6 -18 -19 -21 -27 -4 -11 -6 -10
-6 4 -1 10 7 25 16 32 22 16 32 8 11 -9z m1977 -7 c-3 -5 -12 -10 -18 -10 -7
0 -6 4 3 10 19 12 23 12 15 0z m29 -55 c-4 -8 -8 -15 -10 -15 -2 0 -4 7 -4 15
0 8 4 15 10 15 5 0 7 -7 4 -15z m-2064 -20 c-7 -8 -17 -12 -22 -9 -5 3 -1 12
9 19 22 17 30 11 13 -10z m-25 -54 c-3 -6 -11 -11 -17 -11 -6 0 -6 6 2 15 14
17 26 13 15 -4z m2158 -18 c-7 -2 -19 -2 -25 0 -7 3 -2 5 12 5 14 0 19 -2 13
-5z m-2191 -35 c-7 -7 -12 -8 -12 -2 0 14 12 26 19 19 2 -3 -1 -11 -7 -17z
m2214 -26 c-10 -2 -22 0 -28 6 -6 6 0 7 19 4 21 -5 23 -7 9 -10z m-2245 -39
c-12 -20 -14 -14 -5 12 4 9 9 14 11 11 3 -2 0 -13 -6 -23z m-21 -14 c0 -6 -4
-7 -10 -4 -5 3 -10 11 -10 16 0 6 5 7 10 4 6 -3 10 -11 10 -16z m2306 -15 c-5
-14 -9 -15 -19 -5 -9 9 -9 14 3 21 18 11 24 6 16 -16z m-2340 -55 c4 -8 9 -7
15 2 7 11 9 11 9 -2 0 -25 -28 -31 -40 -9 -11 21 3 29 16 9z m2380 -15 c-3 -9
-6 -18 -6 -20 0 -2 -7 -4 -15 -4 -18 0 -19 12 -3 28 17 17 31 15 24 -4z
m-2412 -130 c3 -9 6 -25 6 -37 0 -27 -16 -11 -25 26 -8 29 8 39 19 11z m23
-21 c-3 -10 -5 -4 -5 12 0 17 2 24 5 18 2 -7 2 -21 0 -30z m2418 0 c-10 -42
-23 -50 -34 -22 -10 27 2 49 26 49 11 0 13 -7 8 -27z m40 -1323 c3 -5 -1 -10
-9 -10 -9 0 -16 5 -16 10 0 6 4 10 9 10 6 0 13 -4 16 -10z m-2485 -12 c0 -11
-22 -10 -39 1 -10 7 -7 9 12 8 15 -1 27 -5 27 -9z m-260 -34 c0 -8 -7 -14 -15
-14 -15 0 -21 21 -9 33 10 9 24 -2 24 -19z m8 -325 c4 -19 -27 -34 -41 -20
-14 14 0 43 20 39 10 -2 19 -10 21 -19z m2972 -5 c0 -9 -7 -14 -17 -12 -25 5
-28 28 -4 28 12 0 21 -6 21 -16z m-990 -9 c0 -8 -2 -15 -4 -15 -2 0 -6 7 -10
15 -3 8 -1 15 4 15 6 0 10 -7 10 -15z m-952 -205 c3 -12 2 -12 -8 -3 -7 6 -19
9 -28 6 -10 -4 -13 -2 -8 6 10 16 38 10 44 -9z m922 1 c0 -5 -11 -8 -24 -7
-13 0 -22 4 -19 9 6 10 43 9 43 -2z m-890 -66 c0 -8 -2 -15 -4 -15 -2 0 -6 7
-10 15 -3 8 -1 15 4 15 6 0 10 -7 10 -15z m897 -21 c-3 -3 -12 -4 -19 -1 -8 3
-5 6 6 6 11 1 17 -2 13 -5z m-867 -29 c0 -14 -2 -25 -4 -25 -2 0 -6 11 -8 25
-3 14 -1 25 3 25 5 0 9 -11 9 -25z m780 11 c0 -2 -7 -7 -16 -10 -8 -3 -12 -2
-9 4 6 10 25 14 25 6z m-800 -46 c0 -5 -5 -10 -11 -10 -5 0 -7 5 -4 10 3 6 8
10 11 10 2 0 4 -4 4 -10z m50 0 c0 -5 -2 -10 -4 -10 -3 0 -8 5 -11 10 -3 6 -1
10 4 10 6 0 11 -4 11 -10z m40 -40 c0 -11 -2 -20 -4 -20 -2 0 -6 9 -9 20 -3
11 -1 20 4 20 5 0 9 -9 9 -20z m670 10 c0 -5 -4 -10 -10 -10 -5 0 -10 5 -10
10 0 6 5 10 10 10 6 0 10 -4 10 -10z m-76 -35 c-4 -8 -12 -15 -19 -15 -7 0
-21 -3 -31 -7 -12 -4 -15 -3 -10 5 4 7 16 12 27 12 10 0 19 5 19 10 0 6 4 10
10 10 5 0 7 -7 4 -15z m41 5 c3 -5 1 -10 -4 -10 -6 0 -11 5 -11 10 0 6 2 10 4
10 3 0 8 -4 11 -10z m-548 -26 c3 -8 0 -21 -7 -27 -10 -10 -12 -8 -7 6 4 9 2
17 -3 17 -6 0 -10 5 -10 10 0 16 20 12 27 -6z m62 -28 c9 -10 7 -17 -6 -27
-15 -12 -16 -12 -10 4 5 13 0 20 -16 27 -22 9 -22 9 -1 9 12 1 27 -5 33 -13z
m348 8 c-3 -3 -12 -4 -19 -1 -8 3 -5 6 6 6 11 1 17 -2 13 -5z m53 -4 c0 -5 -7
-7 -15 -4 -8 4 -15 8 -15 10 0 2 7 4 15 4 8 0 15 -4 15 -10z m-60 -31 c0 -6
-4 -7 -10 -4 -5 3 -10 11 -10 16 0 6 5 7 10 4 6 -3 10 -11 10 -16z m-217 4
c-13 -2 -33 -2 -45 0 -13 2 -3 4 22 4 25 0 35 -2 23 -4z m102 -2 l-40 -7 33
-8 c17 -4 32 -12 32 -18 0 -6 -7 -7 -16 -4 -9 3 -50 6 -92 6 -54 0 -72 3 -62
10 8 5 34 10 58 10 26 0 41 4 37 10 -4 6 12 9 42 9 l48 -2 -40 -6z"/>
<path d="M2555 3885 c-33 -8 -74 -14 -90 -15 -17 0 -35 -4 -40 -9 -6 -4 -32
-15 -60 -24 -82 -26 -177 -74 -235 -119 -45 -34 -170 -159 -170 -169 0 -6 -13
-24 -30 -42 -16 -18 -30 -39 -30 -48 0 -9 -13 -41 -30 -72 -16 -31 -30 -70
-30 -87 0 -16 -7 -47 -15 -67 -12 -32 -15 -146 -17 -721 -3 -676 -3 -683 17
-688 11 -2 408 -3 883 -2 936 3 902 1 867 55 -13 19 -15 120 -15 671 0 686 1
671 -45 792 -8 19 -17 45 -20 58 -4 12 -11 22 -16 22 -5 0 -9 7 -9 15 0 13
-16 40 -67 115 -41 59 -174 179 -227 204 -19 9 -38 21 -41 26 -3 6 -15 10 -26
10 -10 0 -19 3 -19 8 0 4 -30 18 -67 30 -38 13 -77 27 -88 32 -11 5 -45 12
-75 15 -30 4 -64 9 -75 12 -52 12 -175 11 -230 -2z m192 -41 c11 -10 6 -14
-31 -19 -24 -4 -63 -4 -86 0 l-41 7 23 20 c19 16 31 18 72 12 27 -3 56 -12 63
-20z m-286 -15 c-23 -9 -24 -10 -5 -24 25 -19 7 -19 -26 0 -19 11 -21 14 -7
15 9 0 17 5 17 10 0 6 10 10 23 9 22 0 22 0 -2 -10z m455 -3 c3 -8 13 -12 22
-10 14 5 15 4 2 -4 -8 -5 -26 -13 -40 -17 -20 -6 -23 -5 -12 6 18 19 15 27
-10 32 -20 4 -19 4 5 6 16 0 30 -5 33 -13z m-526 -20 c0 -2 -7 -6 -15 -10 -8
-3 -15 -1 -15 4 0 6 7 10 15 10 8 0 15 -2 15 -4z m620 -6 c0 -5 -7 -7 -15 -4
-8 4 -15 8 -15 10 0 2 7 4 15 4 8 0 15 -4 15 -10z m-697 -27 c-7 -2 -13 -11
-13 -19 0 -9 -4 -13 -10 -9 -14 9 0 35 19 34 10 0 11 -2 4 -6z m764 1 c-3 -3
-12 -4 -19 -1 -8 3 -5 6 6 6 11 1 17 -2 13 -5z m-820 -21 c-13 -3 -16 -10 -11
-26 5 -17 4 -19 -6 -10 -17 16 -5 43 17 42 17 -1 17 -2 0 -6z m823 3 c0 -3 -4
-8 -10 -11 -5 -3 -10 -1 -10 4 0 6 5 11 10 11 6 0 10 -2 10 -4z m45 -6 c8 -13
-5 -13 -25 0 -13 8 -13 10 2 10 9 0 20 -4 23 -10z m55 -29 c0 -5 -9 -7 -20 -4
-12 3 -20 0 -20 -6 0 -7 -4 -9 -10 -6 -20 12 -9 25 20 25 17 0 30 -4 30 -9z
m-1000 -31 c-8 -5 -17 -7 -19 -4 -3 3 1 9 9 14 8 5 17 7 19 4 3 -3 -1 -9 -9
-14z m927 -2 c-3 -8 -6 -5 -6 6 -1 11 2 17 5 13 3 -3 4 -12 1 -19z m-967 -18
c0 -5 -5 -10 -11 -10 -5 0 -7 5 -4 10 3 6 8 10 11 10 2 0 4 -4 4 -10z m1115
-12 c24 -29 31 -58 7 -31 -34 37 -44 53 -35 53 5 0 17 -10 28 -22z m-1145 -24
c0 -8 -5 -12 -10 -9 -6 4 -8 11 -5 16 9 14 15 11 15 -7z m40 -24 c0 -5 -5 -10
-11 -10 -5 0 -7 5 -4 10 3 6 8 10 11 10 2 0 4 -4 4 -10z m1160 0 c0 -5 -4 -10
-10 -10 -5 0 -10 5 -10 10 0 6 5 10 10 10 6 0 10 -4 10 -10z m-1263 -29 c-1
-12 -10 -21 -24 -24 l-22 -4 22 23 c27 29 26 29 24 5z m1293 -2 c0 -6 -4 -7
-10 -4 -5 3 -10 11 -10 16 0 6 5 7 10 4 6 -3 10 -11 10 -16z m41 -62 c10 -3
19 -11 18 -19 0 -10 -2 -10 -6 0 -2 6 -13 12 -24 12 -14 0 -19 7 -18 28 1 21
3 23 6 6 2 -12 13 -24 24 -27z m-1366 3 c3 -5 2 -10 -4 -10 -5 0 -13 5 -16 10
-3 6 -2 10 4 10 5 0 13 -4 16 -10z m33 -57 c-10 -2 -26 -2 -35 0 -10 3 -2 5
17 5 19 0 27 -2 18 -5z m1382 -14 c0 -6 -4 -7 -10 -4 -5 3 -10 11 -10 16 0 6
5 7 10 4 6 -3 10 -11 10 -16z m-1470 -39 c0 -4 -11 -7 -25 -6 -22 1 -23 2 -9
13 17 12 34 9 34 -7z m1500 -15 c0 -8 -2 -15 -4 -15 -2 0 -6 7 -10 15 -3 8 -1
15 4 15 6 0 10 -7 10 -15z m-1535 -45 c3 -5 -1 -10 -9 -10 -9 0 -16 5 -16 10
0 6 4 10 9 10 6 0 13 -4 16 -10z m1535 -19 c0 -5 -7 -12 -16 -15 -14 -5 -15
-4 -4 9 14 17 20 19 20 6z m30 -11 c0 -5 -2 -10 -4 -10 -3 0 -8 5 -11 10 -3 6
-1 10 4 10 6 0 11 -4 11 -10z m-1523 -6 c-3 -3 -12 -4 -19 -1 -8 3 -5 6 6 6
11 1 17 -2 13 -5z m-67 -94 c12 -23 7 -25 -21 -9 -11 5 -17 14 -14 20 10 15
23 11 35 -11z m1608 -2 c7 -7 12 -19 12 -27 0 -12 -2 -13 -8 -3 -5 7 -16 10
-25 6 -19 -7 -20 -4 -11 20 7 19 16 20 32 4z m9 -1324 c-3 -3 -12 -4 -19 -1
-8 3 -5 6 6 6 11 1 17 -2 13 -5z"/>
<path d="M2653 3843 c15 -2 37 -2 50 0 12 2 0 4 -28 4 -27 0 -38 -2 -22 -4z"/>
<path d="M2581 1526 c-29 -30 -33 -41 -33 -85 0 -65 27 -100 93 -123 45 -15
54 -15 91 -2 46 16 88 50 88 71 0 7 5 22 12 32 9 15 7 27 -10 63 -29 62 -57
78 -140 78 -64 0 -70 -2 -101 -34z m68 1 c-2 -1 -12 -9 -22 -16 -15 -12 -17
-12 -11 3 3 9 13 16 22 16 8 0 13 -1 11 -3z m101 -7 c0 -5 -2 -10 -4 -10 -3 0
-8 5 -11 10 -3 6 -1 10 4 10 6 0 11 -4 11 -10z m50 -85 c0 -3 -4 -4 -9 -1 -5
4 -11 0 -14 -6 -7 -22 -19 -1 -12 21 5 18 8 19 21 7 8 -8 14 -17 14 -21z
m-203 -7 c-3 -8 -6 -5 -6 6 -1 11 2 17 5 13 3 -3 4 -12 1 -19z m66 -58 c-3
-11 -9 -20 -13 -20 -5 0 -6 9 -3 20 3 11 9 20 13 20 5 0 6 -9 3 -20z m77 -1
c0 -24 -23 -21 -28 4 -2 10 3 17 12 17 10 0 16 -9 16 -21z m40 1 c0 -5 -5 -10
-11 -10 -5 0 -7 5 -4 10 3 6 8 10 11 10 2 0 4 -4 4 -10z"/>
</g>
</svg>
